<?xml version="1.0" standalone="no"?>
<!DOCTYPE svg PUBLIC "-//W3C//DTD SVG 20010904//EN"
 "http://www.w3.org/TR/2001/REC-SVG-20010904/DTD/svg10.dtd">
<svg version="1.0" xmlns="http://www.w3.org/2000/svg"
 width="400.000000pt" height="400.000000pt" viewBox="0 0 400.000000 400.000000"
 preserveAspectRatio="xMidYMid meet">

<g transform="translate(0.000000,400.000000) scale(0.100000,-0.100000)"
fill="#000000" stroke="none">
<path d="M1800 3940 c-199 -47 -533 -176 -720 -280 -472 -262 -789 -624 -928
-1061 -148 -462 -105 -974 117 -1414 137 -269 292 -470 506 -653 615 -527
1394 -638 2075 -297 522 261 948 798 1108 1395 l36 135 4 268 c3 221 1 282
-13 350 -92 456 -453 940 -940 1256 -208 136 -456 243 -676 292 -141 31 -450
36 -569 9z m390 -274 c312 -39 566 -129 800 -284 445 -295 690 -734 717 -1289
17 -341 -107 -739 -322 -1038 -93 -130 -154 -198 -263 -298 -211 -192 -432
-313 -697 -382 -217 -57 -306 -69 -540 -69 -202 0 -214 1 -300 28 -161 49
-262 122 -310 222 -63 132 4 275 334 714 103 137 145 202 192 300 68 141 99
180 142 180 65 0 98 -48 150 -220 67 -222 166 -444 252 -565 58 -81 144 -161
200 -185 92 -39 212 -21 315 48 98 66 130 153 75 207 -22 23 -32 25 -120 25
-60 0 -108 5 -130 14 -112 47 -351 543 -395 822 -19 116 8 173 172 369 143
172 415 535 475 635 69 115 117 213 139 283 16 51 16 60 4 68 -8 5 -64 8 -125
7 -103 -3 -114 -5 -167 -36 -106 -61 -222 -213 -304 -398 -52 -117 -147 -300
-190 -365 -85 -128 -264 -264 -299 -228 -7 8 -109 165 -227 349 -364 570 -312
501 -463 614 -73 54 -137 99 -141 99 -5 0 -58 -87 -117 -192 l-108 -193 -30
-146 c-16 -81 -28 -150 -27 -154 2 -4 77 54 168 128 90 74 167 133 171 132 16
-6 307 -400 354 -479 68 -114 118 -249 118 -319 1 -66 -34 -141 -118 -255 -74
-99 -99 -143 -240 -415 -123 -238 -208 -384 -273 -475 -79 -110 -233 -249
-252 -229 -4 5 -87 146 -184 313 l-176 304 149 386 148 386 -248 3 -249 2 0
55 c0 82 27 271 54 376 74 291 244 560 474 753 262 217 614 358 1002 399 89
10 307 6 410 -7z m-1665 -1778 c-28 -93 -99 -164 -185 -188 -61 -17 -60 -20
-60 100 l0 110 126 0 125 0 -6 -22z"/>
<path d="M2173 3075 c-128 -40 -208 -131 -247 -282 -9 -34 -16 -78 -16 -98 l0
-37 48 28 c176 102 294 238 317 367 7 37 7 37 -26 36 -19 0 -53 -6 -76 -14z"/>
<path d="M2507 2116 c-26 -7 -62 -26 -78 -42 -32 -30 -54 -63 -47 -70 3 -2 90
3 194 11 104 8 193 15 197 15 5 0 7 14 5 32 -3 29 -7 33 -53 45 -80 20 -165
24 -218 9z"/>
</g>
</svg>
