<?xml version="1.0" encoding="utf-8"?>
<!-- Generator: Adobe Illustrator 25.0.0, SVG Export Plug-In . SVG Version: 6.00 Build 0)  -->
<svg version="1.1" id="Livello_1" xmlns="http://www.w3.org/2000/svg" xmlns:xlink="http://www.w3.org/1999/xlink" x="0px" y="0px"
	 viewBox="0 0 400 400" style="enable-background:new 0 0 400 400;" xml:space="preserve">
<style type="text/css">
	.st0{fill:#FFFFFF;}
</style>
<g transform="translate(0.000000,400.000000) scale(0.100000,-0.100000)">
	<path class="st0" d="M1800,3940c-199-47-533-176-720-280c-472-262-789-624-928-1061C4,2137,47,1625,269,1185
		c137-269,292-470,506-653C1390,5,2169-106,2850,235c522,261,948,798,1108,1395l36,135l4,268c3,221,1,282-13,350
		c-92,456-453,940-940,1256c-208,136-456,243-676,292C2228,3962,1919,3967,1800,3940z M2190,3666c312-39,566-129,800-284
		c445-295,690-734,717-1289c17-341-107-739-322-1038c-93-130-154-198-263-298c-211-192-432-313-697-382c-217-57-306-69-540-69
		c-202,0-214,1-300,28c-161,49-262,122-310,222c-63,132,4,275,334,714c103,137,145,202,192,300c68,141,99,180,142,180
		c65,0,98-48,150-220c67-222,166-444,252-565c58-81,144-161,200-185c92-39,212-21,315,48c98,66,130,153,75,207c-22,23-32,25-120,25
		c-60,0-108,5-130,14c-112,47-351,543-395,822c-19,116,8,173,172,369c143,172,415,535,475,635c69,115,117,213,139,283
		c16,51,16,60,4,68c-8,5-64,8-125,7c-103-3-114-5-167-36c-106-61-222-213-304-398c-52-117-147-300-190-365c-85-128-264-264-299-228
		c-7,8-109,165-227,349c-364,570-312,501-463,614c-73,54-137,99-141,99c-5,0-58-87-117-192l-108-193l-30-146c-16-81-28-150-27-154
		c2-4,77,54,168,128c90,74,167,133,171,132c16-6,307-400,354-479c68-114,118-249,118-319c1-66-34-141-118-255c-74-99-99-143-240-415
		c-123-238-208-384-273-475c-79-110-233-249-252-229c-4,5-87,146-184,313l-176,304l149,386l148,386l-248,3l-249,2v55
		c0,82,27,271,54,376c74,291,244,560,474,753c262,217,614,358,1002,399C1869,3683,2087,3679,2190,3666z M525,1888
		c-28-93-99-164-185-188c-61-17-60-20-60,100v110h126h125L525,1888z"/>
	<path class="st0" d="M2173,3075c-128-40-208-131-247-282c-9-34-16-78-16-98v-37l48,28c176,102,294,238,317,367c7,37,7,37-26,36
		C2230,3089,2196,3083,2173,3075z"/>
	<path class="st0" d="M2507,2116c-26-7-62-26-78-42c-32-30-54-63-47-70c3-2,90,3,194,11s193,15,197,15c5,0,7,14,5,32
		c-3,29-7,33-53,45C2645,2127,2560,2131,2507,2116z"/>
</g>
</svg>
